<?xml version="1.0" standalone="no"?>
<!DOCTYPE svg PUBLIC "-//W3C//DTD SVG 20010904//EN"
 "http://www.w3.org/TR/2001/REC-SVG-20010904/DTD/svg10.dtd">
<svg version="1.0" xmlns="http://www.w3.org/2000/svg"
 width="268.000000pt" height="268.000000pt" viewBox="0 0 268.000000 268.000000"
 preserveAspectRatio="xMidYMid meet">
<metadata>
Created by potrace 1.14, written by Peter Selinger 2001-2017
</metadata>
<g transform="translate(0.000000,268.000000) scale(0.100000,-0.100000)"
fill="#000000" stroke="none">
<path d="M715 2644 c-182 -38 -290 -91 -409 -203 -100 -95 -160 -197 -197
-335 -18 -64 -19 -114 -19 -638 0 -638 1 -645 71 -797 113 -244 330 -420 590
-480 78 -18 113 -23 244 -37 28 -3 57 -7 65 -9 8 -3 38 -7 65 -10 28 -3 75
-10 105 -15 30 -5 78 -12 105 -15 28 -3 64 -7 80 -10 53 -8 109 -16 155 -21
25 -3 52 -7 60 -9 8 -2 41 -7 73 -10 32 -4 68 -9 80 -12 12 -3 76 -7 142 -9
95 -2 135 1 193 17 248 66 422 266 448 514 6 59 13 117 21 165 3 19 6 315 7
657 2 658 0 687 -45 809 -70 186 -262 361 -461 418 -30 9 -66 20 -79 24 -25 7
-1260 13 -1294 6z"/>
</g>
</svg>
